<?xml version="1.0" standalone="no"?>
<!DOCTYPE svg PUBLIC "-//W3C//DTD SVG 20010904//EN"
 "http://www.w3.org/TR/2001/REC-SVG-20010904/DTD/svg10.dtd">
<svg version="1.0" xmlns="http://www.w3.org/2000/svg"
 width="1500.000000pt" height="1500.000000pt" viewBox="0 0 1500.000000 1500.000000"
 preserveAspectRatio="xMidYMid meet">
<metadata>
Created by potrace 1.14, written by Peter Selinger 2001-2017
</metadata>
<g transform="translate(0.000000,1500.000000) scale(0.100000,-0.100000)"
fill="#000000" stroke="none">
<path d="M7475 12798 c-31 -66 -91 -155 -166 -248 -222 -275 -552 -467 -909
-530 -97 -17 -183 -18 -1120 -19 -1609 -1 -2973 -8 -3000 -14 -14 -3 -45 -9
-70 -12 -73 -11 -267 -63 -339 -91 -78 -31 -242 -112 -303 -150 -193 -120
-427 -354 -515 -514 -108 -194 -165 -345 -186 -490 -3 -19 -9 -57 -13 -83 -3
-27 -7 -481 -8 -1010 -1 -529 -4 -966 -7 -972 -4 -5 -9 -32 -13 -60 -8 -72
-48 -218 -84 -307 -79 -195 -180 -347 -337 -504 -126 -127 -220 -197 -352
-266 -24 -12 -43 -25 -43 -28 0 -4 18 -15 41 -25 23 -11 81 -46 130 -79 365
-250 582 -600 655 -1056 4 -25 8 -461 9 -970 2 -943 4 -1020 31 -1152 3 -15 5
-29 4 -30 -2 -7 74 -218 97 -267 115 -244 304 -460 543 -622 203 -137 454
-236 700 -275 19 -3 46 -8 60 -12 14 -3 869 -7 1900 -8 1031 -1 1943 -5 2025
-8 226 -8 402 -51 600 -147 254 -122 470 -318 624 -566 26 -43 51 -89 56 -102
8 -28 14 -22 53 48 93 171 260 359 422 477 101 73 105 76 202 127 87 46 291
121 358 132 25 4 99 18 115 22 56 12 427 15 2165 17 1042 2 1906 6 1920 9 14
3 43 8 65 12 116 18 304 71 395 112 83 36 168 78 205 102 95 59 150 95 155
100 3 4 23 19 45 36 22 16 85 74 141 130 243 242 393 552 420 865 4 47 8 504
9 1015 2 512 6 946 9 965 34 184 73 313 135 445 125 266 359 517 613 657 43
24 78 46 78 49 0 3 -17 13 -37 23 -46 21 -216 135 -258 171 -303 265 -461 551
-531 965 -4 25 -8 457 -9 960 -2 875 -6 1042 -24 1120 -4 19 -8 38 -9 43 -36
186 -142 409 -275 580 -230 293 -588 514 -962 593 -198 42 -185 42 -2200 44
-1061 0 -1943 3 -1960 4 -271 30 -470 97 -685 234 -198 126 -359 294 -486 510
-31 50 -56 92 -57 92 -1 0 -11 -19 -22 -42z"/>
</g>
</svg>
