<?xml version="1.0" standalone="no"?>
<!DOCTYPE svg PUBLIC "-//W3C//DTD SVG 20010904//EN"
 "http://www.w3.org/TR/2001/REC-SVG-20010904/DTD/svg10.dtd">
<svg version="1.0" xmlns="http://www.w3.org/2000/svg"
 width="1500.000000pt" height="1500.000000pt" viewBox="0 0 1500.000000 1500.000000"
 preserveAspectRatio="xMidYMid meet">
<metadata>
Created by potrace 1.14, written by Peter Selinger 2001-2017
</metadata>
<g transform="translate(0.000000,1500.000000) scale(0.100000,-0.100000)"
fill="#000000" stroke="none">
<path d="M930 9787 c-3 -3 -30 -7 -60 -11 -94 -10 -112 -14 -235 -53 -258 -80
-460 -251 -535 -451 -45 -119 -59 -209 -55 -352 6 -247 67 -384 258 -578 144
-148 289 -239 673 -427 326 -159 446 -225 551 -304 159 -117 221 -202 247
-339 67 -354 -244 -548 -872 -544 -132 1 -165 3 -292 23 -163 25 -345 74 -461
123 l-36 15 -11 -47 c-7 -26 -14 -56 -16 -67 -2 -11 -18 -76 -36 -144 -17 -68
-29 -130 -26 -137 9 -24 305 -104 476 -130 25 -3 54 -8 65 -10 131 -25 522
-24 690 1 17 3 48 7 70 10 128 17 309 71 418 126 175 89 319 228 389 379 75
162 92 406 41 590 -62 226 -278 445 -628 636 -98 54 -99 55 -294 144 -298 136
-508 261 -626 371 -125 118 -164 202 -163 351 1 151 55 262 158 329 29 19 55
34 59 34 3 1 15 6 26 12 20 11 115 36 185 49 57 10 419 13 495 3 39 -5 93 -11
120 -14 28 -4 106 -18 175 -31 69 -14 136 -27 150 -30 14 -3 42 -10 64 -15 21
-6 42 -7 46 -2 5 6 36 172 67 366 2 15 0 27 -5 27 -5 0 -63 11 -128 24 -66 14
-168 32 -229 40 -60 8 -128 18 -150 22 -46 7 -559 17 -565 11z"/>
<path d="M10670 9784 c-14 -3 -65 -11 -115 -20 -124 -20 -188 -37 -315 -81
-211 -75 -412 -201 -568 -360 -99 -101 -166 -193 -249 -343 -52 -94 -121 -283
-148 -405 -15 -72 -18 -90 -30 -185 -3 -30 -8 -68 -10 -85 -6 -35 -6 -359 -1
-425 6 -76 16 -175 22 -206 44 -265 86 -400 182 -584 94 -180 228 -339 387
-458 114 -85 345 -193 475 -222 94 -21 188 -40 215 -44 17 -2 48 -7 70 -11 22
-3 63 -8 90 -11 80 -9 463 -11 514 -3 25 3 74 10 108 13 209 22 570 139 726
235 l57 36 0 732 c0 579 -3 733 -12 734 -74 4 -1011 -1 -1015 -5 -9 -9 -10
-328 -2 -346 6 -13 48 -15 308 -15 l301 0 0 -451 0 -451 -57 -21 c-69 -24
-190 -57 -253 -68 -25 -4 -47 -8 -50 -9 -3 -1 -34 -5 -70 -9 -36 -4 -78 -10
-95 -13 -39 -6 -311 -6 -350 1 -16 2 -54 8 -84 11 -364 44 -677 262 -841 586
-39 76 -104 251 -114 305 -2 16 -7 40 -10 54 -18 80 -22 109 -32 235 -50 596
124 1079 470 1309 158 105 356 172 569 194 125 12 469 5 578 -13 13 -2 47 -6
74 -10 80 -10 354 -55 425 -70 36 -7 82 -16 102 -20 41 -6 41 -8 57 90 16 96
18 106 35 194 9 46 16 84 16 86 0 1 -12 5 -27 8 -16 4 -62 13 -103 22 -86 19
-201 39 -310 54 -76 11 -100 14 -200 25 -30 4 -73 9 -95 12 -48 7 -589 14
-625 8z"/>
<path d="M3125 9594 c-44 -7 -109 -15 -145 -19 -36 -4 -74 -9 -85 -11 -11 -1
-27 -3 -37 -3 -15 -1 -16 -31 -15 -343 l0 -343 -226 -3 -227 -2 0 -160 0 -160
225 0 225 0 1 -32 c0 -18 1 -373 1 -789 1 -797 5 -868 49 -1029 24 -88 70
-179 113 -221 34 -34 100 -81 131 -94 153 -62 377 -68 574 -15 59 16 141 52
227 101 l71 41 -49 127 c-68 173 -67 171 -73 171 -3 0 -31 -13 -63 -29 -61
-30 -184 -77 -230 -86 -195 -41 -288 -4 -326 129 -26 90 -30 200 -30 976 l-1
745 358 3 357 2 0 160 0 160 -357 2 -358 3 -1 360 c-1 198 -2 363 -3 366 -1 7
-11 7 -106 -7z"/>
<path d="M5218 8915 c-2 -2 -39 -6 -83 -9 -44 -3 -96 -8 -115 -11 -19 -2 -55
-7 -80 -10 -25 -3 -56 -8 -70 -10 -38 -8 -70 -14 -130 -25 -67 -12 -112 -21
-125 -24 -5 -2 -27 -6 -48 -11 -48 -9 -48 -2 9 -237 14 -59 30 -108 35 -108 5
0 44 9 87 20 42 11 89 22 105 25 15 3 37 7 50 10 187 39 507 60 621 41 210
-35 319 -165 341 -410 10 -103 13 -306 6 -311 -4 -2 -57 -6 -117 -10 -432 -22
-641 -53 -854 -127 -308 -107 -513 -287 -581 -511 -41 -133 -28 -359 29 -506
93 -238 341 -365 696 -356 115 3 260 25 298 46 10 5 18 8 18 5 0 -14 325 136
450 208 55 31 65 32 67 5 1 -11 7 -45 12 -75 6 -30 16 -79 22 -110 l11 -56 71
7 c40 4 88 9 107 10 56 4 153 15 178 21 21 4 22 8 16 52 -3 25 -8 58 -11 72
-4 24 -8 320 -17 1280 -2 234 -6 439 -10 455 -3 17 -13 66 -22 110 -59 302
-255 490 -566 541 -32 6 -395 13 -400 9z m608 -1664 c-1 -153 -3 -281 -6 -283
-124 -93 -275 -179 -402 -229 -139 -55 -384 -77 -505 -46 -96 25 -181 86 -218
158 -44 83 -41 253 5 353 65 143 258 241 555 281 22 2 56 7 75 10 19 2 51 7
70 9 19 3 85 8 145 11 61 4 111 8 112 8 1 1 39 3 85 5 l84 3 0 -280z"/>
<path d="M13617 8904 c-413 -62 -713 -274 -885 -626 -59 -121 -77 -171 -102
-293 -39 -188 -45 -438 -14 -654 45 -319 201 -597 434 -774 258 -195 657 -271
1010 -191 95 22 216 62 274 91 156 78 313 211 409 346 87 121 178 324 203 449
24 123 38 267 38 403 0 87 -12 274 -18 284 -3 4 -7 27 -11 51 -26 187 -148
430 -296 588 -128 137 -348 262 -524 297 -22 5 -42 9 -45 10 -114 30 -337 39
-473 19z m293 -339 c266 -33 495 -221 586 -484 70 -201 89 -487 50 -751 -6
-39 -8 -52 -30 -130 -61 -227 -222 -410 -416 -474 -203 -67 -383 -66 -605 1
-30 10 -125 62 -165 92 -214 159 -314 414 -314 801 0 158 12 283 36 375 5 22
11 47 13 55 2 8 15 46 29 84 96 253 304 412 566 433 41 3 76 7 78 8 4 3 113
-3 172 -10z"/>
<path d="M6570 8866 c0 -2 65 -162 145 -357 175 -424 215 -523 340 -829 53
-129 100 -244 104 -255 29 -67 50 -117 151 -365 62 -151 134 -329 161 -395 27
-66 58 -138 68 -161 l19 -41 -59 -154 c-113 -296 -129 -335 -167 -399 -50 -87
-208 -245 -307 -309 -44 -28 -84 -52 -89 -54 -5 -2 10 -36 34 -77 49 -86 70
-123 113 -200 16 -30 31 -56 33 -58 4 -6 64 28 118 66 205 142 393 347 484
527 11 22 72 171 135 330 171 431 413 1040 549 1385 66 168 126 319 133 335 7
17 38 95 70 175 152 387 176 446 185 465 5 11 34 83 64 160 30 77 61 157 70
178 l16 37 -207 0 -208 0 -104 -272 c-57 -150 -112 -293 -122 -318 -10 -25
-68 -175 -129 -335 -61 -159 -114 -299 -119 -310 -5 -11 -21 -54 -36 -95 -14
-41 -33 -93 -42 -115 -27 -71 -30 -78 -71 -195 -22 -63 -60 -175 -84 -247 -39
-119 -58 -159 -58 -119 0 15 -71 232 -155 476 -62 179 -141 376 -375 940 -83
201 -172 416 -198 478 l-46 112 -208 0 c-114 0 -208 -2 -208 -4z"/>
</g>
</svg>
